<?xml version="1.0" encoding="UTF-8" standalone="no"?>
<svg
   class="svglite"
   width="720.00pt"
   height="324.00pt"
   viewBox="0 0 720.00 324.00"
   version="1.1"
   id="svg166"
   sodipodi:docname="0.001cost0.5belief_tmax_vs_rdeploy.svg"
   inkscape:version="1.2 (dc2aedaf03, 2022-05-15)"
   inkscape:export-filename="0.001cost0.5belief_tmax_vs_rdeploy.pdf"
   inkscape:export-xdpi="96"
   inkscape:export-ydpi="96"
   xmlns:inkscape="http://www.inkscape.org/namespaces/inkscape"
   xmlns:sodipodi="http://sodipodi.sourceforge.net/DTD/sodipodi-0.dtd"
   xmlns="http://www.w3.org/2000/svg"
   xmlns:svg="http://www.w3.org/2000/svg">
  <sodipodi:namedview
     id="namedview168"
     pagecolor="#ffffff"
     bordercolor="#000000"
     borderopacity="0.25"
     inkscape:showpageshadow="2"
     inkscape:pageopacity="0.0"
     inkscape:pagecheckerboard="0"
     inkscape:deskcolor="#d1d1d1"
     inkscape:document-units="pt"
     showgrid="false"
     inkscape:zoom="1.3822917"
     inkscape:cx="479.63828"
     inkscape:cy="216.66918"
     inkscape:window-width="1920"
     inkscape:window-height="1001"
     inkscape:window-x="-9"
     inkscape:window-y="-9"
     inkscape:window-maximized="1"
     inkscape:current-layer="svg166" />
  <defs
     id="defs4">
    <style
       type="text/css"
       id="style2"><![CDATA[
    .svglite line, .svglite polyline, .svglite polygon, .svglite path, .svglite rect, .svglite circle {
      fill: none;
      stroke: #000000;
      stroke-linecap: round;
      stroke-linejoin: round;
      stroke-miterlimit: 10.00;
    }
    .svglite text {
      white-space: pre;
    }
  ]]></style>
  </defs>
  <rect
     width="100%"
     height="100%"
     style="stroke: none; fill: #FFFFFF;"
     id="rect6" />
  <defs
     id="defs11" />
  <rect
     x="6.4e-14"
     y="0"
     width="720"
     height="324"
     style="fill:#ffffff;stroke:#ffffff;stroke-width:1.07"
     id="rect13" />
  <defs
     id="defs20" />
  <rect
     x="58.389999"
     y="5.48"
     width="453.57999"
     height="261.13"
     style="fill:#ffffff;stroke:none;stroke-width:1.07"
     id="rect22" />
  <polyline
     points="79.05,254.74 79.05,254.74 79.05,254.74 79.05,254.74 79.05,254.74 79.05,254.74 79.51,254.74 79.97,254.74 80.43,254.74 80.88,254.74 81.34,254.74 81.80,254.74 82.26,254.74 82.72,254.74 83.17,254.74 83.63,254.74 84.09,254.74 84.55,254.74 85.01,254.74 85.47,254.74 85.92,254.74 86.38,254.74 86.84,254.74 87.30,254.74 87.76,254.74 88.21,254.74 88.21,254.74 88.67,254.74 89.13,254.74 89.59,254.74 90.05,254.74 90.51,254.74 90.96,254.74 91.42,254.74 91.88,254.74 92.34,254.74 92.80,254.74 92.80,254.74 92.80,254.74 93.25,254.74 93.71,254.74 94.17,254.74 94.63,254.74 95.09,254.74 95.55,254.74 96.00,254.74 96.46,254.74 96.92,254.74 97.38,254.74 97.38,254.74 97.38,254.74 97.38,254.74 97.84,254.74 98.29,254.74 98.75,254.74 99.21,254.74 99.67,254.74 100.13,254.74 100.59,254.74 101.04,254.74 101.50,254.74 101.96,254.74 101.96,254.74 101.96,254.74 101.96,254.74 101.96,254.74 101.96,254.74 102.42,254.74 102.88,254.74 103.33,254.74 103.79,254.74 104.25,254.74 104.71,254.74 105.17,254.74 105.62,254.74 106.08,254.74 106.54,254.74 106.54,254.74 106.54,254.74 106.54,254.74 106.54,254.74 106.54,254.74 107.00,254.74 107.46,254.74 107.92,254.74 108.37,254.74 108.83,254.74 109.29,254.74 109.75,254.74 110.21,254.74 110.66,254.74 111.12,254.74 111.12,254.74 111.12,254.74 111.12,254.74 111.12,254.74 111.12,254.74 111.12,254.74 111.58,254.74 112.04,254.74 112.50,254.74 112.96,254.74 113.41,254.74 113.87,254.74 114.33,254.74 114.79,254.74 115.25,254.74 115.70,254.74 115.70,254.74 115.70,254.74 115.70,254.74 115.70,254.74 115.70,254.74 115.70,254.74 115.70,254.74 116.16,254.74 116.62,254.74 117.08,254.74 117.54,254.74 118.00,254.74 118.45,254.74 118.91,254.74 119.37,254.74 119.83,254.74 120.29,254.74 120.29,254.74 120.29,254.74 120.29,254.74 120.29,254.74 120.29,254.74 120.29,254.74 120.29,254.74 120.29,254.74 120.74,254.74 121.20,254.74 121.20,254.74 121.66,254.74 121.66,254.74 121.66,254.74 122.12,254.74 122.12,254.74 122.12,254.74 122.12,254.74 122.58,254.74 122.58,254.74 122.58,254.74 122.58,254.74 122.58,254.74 123.03,254.74 123.03,254.74 123.03,254.74 123.03,254.74 123.03,254.74 123.03,254.74 123.49,254.74 123.49,254.74 123.49,254.74 123.49,254.74 123.49,254.74 123.49,254.74 123.49,254.74 123.95,254.74 123.95,254.74 123.95,254.74 123.95,254.74 123.95,254.74 123.95,254.74 123.95,254.74 123.95,254.74 124.41,254.74 124.41,254.74 124.41,254.74 124.41,254.74 124.41,254.74 124.41,254.74 124.41,254.74 124.41,254.74 124.41,254.74 124.87,254.74 124.87,254.74 124.87,254.74 124.87,254.74 124.87,254.74 124.87,254.74 124.87,254.74 124.87,254.74 124.87,254.74 124.87,254.74 124.87,254.74 124.87,254.74 124.87,254.74 124.87,254.74 124.87,254.74 124.87,254.74 124.87,254.74 124.87,254.74 124.87,254.74 124.87,254.74 124.87,254.74 124.87,254.74 124.87,254.74 124.87,254.74 124.87,254.74 124.87,254.74 124.87,254.74 124.87,254.74 125.33,216.46 125.33,216.46 125.33,216.46 125.33,216.46 125.33,216.46 125.33,216.46 125.33,216.46 125.33,216.46 125.33,216.46 125.78,197.04 125.78,197.04 125.78,197.04 125.78,197.04 125.78,197.04 125.78,197.04 125.78,197.04 125.78,197.04 126.24,186.01 126.24,186.01 126.24,186.01 126.24,186.01 126.24,186.01 126.24,186.01 126.24,186.01 126.70,178.27 126.70,178.27 126.70,178.27 126.70,178.27 126.70,178.27 126.70,178.27 127.16,172.30 127.16,172.30 127.16,172.30 127.16,172.30 127.16,172.30 127.62,167.45 127.62,167.45 127.62,167.45 127.62,167.45 128.07,163.35 128.07,163.35 128.07,163.35 128.53,159.81 128.53,159.81 128.99,156.69 129.45,153.90 129.45,153.90 129.45,153.90 129.45,153.90 129.45,153.90 129.45,153.90 129.45,153.90 129.45,153.90 129.45,153.90 129.91,151.38 130.37,149.09 130.82,146.97 131.28,145.02 131.74,143.20 132.20,141.50 132.66,139.90 133.11,138.40 133.57,136.97 134.03,135.62 134.03,135.62 134.03,135.62 134.03,135.62 134.03,135.62 134.03,135.62 134.03,135.62 134.03,135.62 134.49,134.34 134.95,133.12 135.41,131.95 135.86,130.83 136.32,129.75 136.78,128.72 137.24,127.73 137.70,126.78 138.15,125.85 138.61,124.96 138.61,124.96 138.61,124.96 138.61,124.96 138.61,124.96 138.61,124.96 138.61,124.96 139.07,124.10 139.53,123.27 139.99,122.46 140.45,121.67 140.90,120.91 141.36,120.17 141.82,119.45 142.28,118.75 142.74,118.07 143.19,117.41 143.19,117.41 143.19,117.41 143.19,117.41 143.19,117.41 143.19,117.41 143.65,116.76 144.11,116.12 144.57,115.51 145.03,114.90 145.48,114.31 145.94,113.74 146.40,113.17 146.86,112.62 147.32,112.08 147.78,111.55 147.78,111.55 147.78,111.55 147.78,111.55 147.78,111.55 147.78,111.55 148.23,111.03 148.69,110.52 149.15,110.02 149.61,109.53 150.07,109.05 150.52,108.57 150.98,108.11 151.44,107.65 151.90,107.20 152.36,106.76 152.36,106.76 152.36,106.76 152.36,106.76 152.82,106.33 153.27,105.90 153.73,105.48 154.19,105.07 154.65,104.66 155.11,104.26 155.56,103.87 156.02,103.48 156.48,103.10 156.94,102.72 156.94,102.72 156.94,102.72 157.40,102.35 157.86,101.98 158.31,101.62 158.77,101.26 159.23,100.91 159.69,100.56 160.15,100.22 160.60,99.88 161.06,99.55 161.52,99.22 161.52,99.22 161.98,98.89 162.44,98.57 162.90,98.25 163.35,97.94 163.81,97.63 164.27,97.32 164.73,97.02 165.19,96.72 165.64,96.42 166.10,96.13 166.56,95.84 167.02,95.55 167.48,95.27 167.93,94.99 168.39,94.71 168.85,94.43 169.31,94.16 169.77,93.89 170.23,93.63 170.68,93.36 170.68,93.36 170.68,93.36 170.68,93.36 170.68,93.36 170.68,93.36 170.68,93.36 170.68,93.36 175.27,90.86 179.85,88.58 184.43,86.48 189.01,84.54 193.59,82.73 193.59,82.73 198.17,81.04 202.76,79.45 207.34,77.95 211.92,76.54 212.38,76.40 212.83,76.26 213.29,76.13 213.75,75.99 214.21,75.86 214.67,75.72 215.13,75.59 215.58,75.45 216.04,75.32 216.50,75.19 216.50,75.19 216.50,75.19 216.50,75.19 216.50,75.19 216.50,75.19 216.50,75.19 221.08,73.91 225.66,72.69 230.24,71.53 234.83,70.41 239.41,69.34 239.41,69.34 243.99,68.31 248.57,67.33 253.15,66.37 257.73,65.45 258.19,65.36 258.65,65.27 259.11,65.18 259.57,65.09 260.03,65.01 260.48,64.92 260.94,64.83 261.40,64.74 261.86,64.65 262.32,64.56 262.32,64.56 262.32,64.56 262.32,64.56 262.32,64.56 262.32,64.56 266.90,63.71 271.48,62.87 276.06,62.07 280.64,61.28 285.22,60.52 285.22,60.52 289.81,59.79 294.39,59.07 298.97,58.37 303.55,57.69 304.01,57.62 304.47,57.55 304.93,57.49 305.38,57.42 305.84,57.36 306.30,57.29 306.76,57.22 307.22,57.16 307.67,57.09 308.13,57.03 308.13,57.03 308.13,57.03 308.13,57.03 308.13,57.03 312.71,56.38 317.30,55.75 321.88,55.13 326.46,54.53 331.04,53.94 331.04,53.94 335.62,53.36 340.20,52.80 344.79,52.25 349.37,51.71 349.83,51.65 350.28,51.60 350.74,51.55 351.20,51.49 351.66,51.44 352.12,51.39 352.57,51.34 353.03,51.28 353.49,51.23 353.95,51.18 353.95,51.18 353.95,51.18 353.95,51.18 358.53,50.66 363.11,50.15 367.69,49.65 372.28,49.16 376.86,48.68 376.86,48.68 381.44,48.21 386.02,47.74 390.60,47.29 395.18,46.84 395.64,46.80 396.10,46.75 396.56,46.71 397.02,46.66 397.47,46.62 397.93,46.58 398.39,46.53 398.85,46.49 399.31,46.44 399.76,46.40 399.76,46.40 399.76,46.40 404.35,45.97 408.93,45.54 413.51,45.12 418.09,44.71 422.67,44.30 422.67,44.30 427.25,43.90 431.84,43.51 436.42,43.12 441.00,42.74 441.46,42.70 441.92,42.66 442.37,42.62 442.83,42.59 443.29,42.55 443.75,42.51 444.21,42.47 444.66,42.44 445.12,42.40 445.58,42.36 445.58,42.36 450.16,41.99 454.74,41.62 459.33,41.26 463.91,40.91 468.49,40.55 468.49,40.55 473.07,40.21 477.65,39.86 482.23,39.53 486.82,39.19 487.27,39.16 487.73,39.13 488.19,39.09 488.65,39.06 489.11,39.03 489.56,38.99 490.02,38.96 490.48,38.93 490.94,38.90 "
     style="stroke:#40a1ff;stroke-width:2.07;stroke-linecap:butt;stroke-dasharray:11.00775728, 11.00775728;stroke-dashoffset:0;stroke-opacity:1"
     id="polyline24" />
  <polyline
     points="79.46,254.74 79.46,254.74 79.46,254.74 79.46,254.74 79.46,254.74 79.46,254.74 79.92,254.74 80.38,254.74 80.84,254.74 81.30,254.74 81.75,254.74 82.21,254.74 82.67,254.74 83.13,254.74 83.59,254.74 84.05,254.74 84.50,254.74 84.96,254.74 85.42,254.74 85.88,254.74 86.34,254.74 86.79,254.74 87.25,254.74 87.71,254.74 88.17,254.74 88.63,254.74 88.63,254.74 89.09,254.74 89.54,254.74 90.00,254.74 90.46,254.74 90.92,254.74 91.38,254.74 91.83,254.74 92.29,254.74 92.75,254.74 93.21,254.74 93.21,254.74 93.21,254.74 93.67,254.74 94.12,254.74 94.58,254.74 95.04,254.74 95.50,254.74 95.96,254.74 96.42,254.74 96.87,254.74 97.33,254.74 97.79,254.74 97.79,254.74 97.79,254.74 97.79,254.74 98.25,254.74 98.71,254.74 99.16,254.74 99.62,254.74 100.08,254.74 100.54,254.74 101.00,254.74 101.46,254.74 101.91,254.74 102.37,254.74 102.37,254.74 102.37,254.74 102.37,254.74 102.37,254.74 102.37,254.74 102.83,254.74 103.29,254.74 103.75,254.74 104.20,254.74 104.66,254.74 105.12,254.74 105.58,254.74 106.04,254.74 106.50,254.74 106.95,254.74 106.95,254.74 106.95,254.74 106.95,254.74 106.95,254.74 106.95,254.74 107.41,254.74 107.87,254.74 108.33,254.74 108.79,254.74 109.24,254.74 109.70,254.74 110.16,254.74 110.62,254.74 111.08,254.74 111.54,254.74 111.54,254.74 111.54,254.74 111.54,254.74 111.54,254.74 111.54,254.74 111.54,254.74 111.99,254.74 112.45,254.74 112.91,254.74 113.37,254.74 113.83,254.74 114.28,254.74 114.74,254.74 115.20,254.74 115.66,254.74 116.12,254.74 116.12,254.74 116.12,254.74 116.12,254.74 116.12,254.74 116.12,254.74 116.12,254.74 116.12,254.74 116.57,254.74 117.03,254.74 117.49,254.74 117.95,254.74 118.41,254.74 118.87,254.74 119.32,254.74 119.78,254.74 120.24,254.74 120.70,254.74 120.70,254.74 120.70,254.74 120.70,254.74 120.70,254.74 120.70,254.74 120.70,254.74 120.70,254.74 120.70,254.74 121.16,254.74 121.61,254.74 121.61,254.74 122.07,254.74 122.07,254.74 122.07,254.74 122.53,254.74 122.53,254.74 122.53,254.74 122.53,254.74 122.99,254.74 122.99,254.74 122.99,254.74 122.99,254.74 122.99,254.74 123.45,254.74 123.45,254.74 123.45,254.74 123.45,254.74 123.45,254.74 123.45,254.74 123.91,254.74 123.91,254.74 123.91,254.74 123.91,254.74 123.91,254.74 123.91,254.74 123.91,254.74 124.36,254.74 124.36,254.74 124.36,254.74 124.36,254.74 124.36,254.74 124.36,254.74 124.36,254.74 124.36,254.74 124.82,254.74 124.82,254.74 124.82,254.74 124.82,254.74 124.82,254.74 124.82,254.74 124.82,254.74 124.82,254.74 124.82,254.74 125.28,254.74 125.28,254.74 125.28,254.74 125.28,254.74 125.28,254.74 125.28,254.74 125.28,254.74 125.28,254.74 125.28,254.74 125.28,254.74 125.28,254.74 125.28,254.74 125.28,254.74 125.28,254.74 125.28,254.74 125.28,254.74 125.28,254.74 125.28,254.74 125.28,254.74 125.28,254.74 125.28,254.74 125.28,254.74 125.28,254.74 125.28,254.74 125.28,254.74 125.28,254.74 125.28,254.74 125.28,254.74 125.74,254.74 125.74,254.74 125.74,254.74 125.74,254.74 125.74,254.74 125.74,254.74 125.74,254.74 125.74,254.74 125.74,254.74 126.20,254.74 126.20,254.74 126.20,254.74 126.20,254.74 126.20,254.74 126.20,254.74 126.20,254.74 126.20,254.74 126.65,254.74 126.65,254.74 126.65,254.74 126.65,254.74 126.65,254.74 126.65,254.74 126.65,254.74 127.11,244.68 127.11,244.68 127.11,244.68 127.11,244.68 127.11,244.68 127.11,244.68 127.57,237.35 127.57,237.35 127.57,237.35 127.57,237.35 127.57,237.35 128.03,231.63 128.03,231.63 128.03,231.63 128.03,231.63 128.49,226.94 128.49,226.94 128.49,226.94 128.95,222.97 128.95,222.97 129.40,219.51 129.86,216.46 129.86,216.46 129.86,216.46 129.86,216.46 129.86,216.46 129.86,216.46 129.86,216.46 129.86,216.46 129.86,216.46 130.32,213.73 130.78,211.26 131.24,209.00 131.69,206.92 132.15,204.99 132.61,203.20 133.07,201.52 133.53,199.94 133.99,198.45 134.44,197.04 134.44,197.04 134.44,197.04 134.44,197.04 134.44,197.04 134.44,197.04 134.44,197.04 134.44,197.04 134.90,195.70 135.36,194.43 135.82,193.22 136.28,192.06 136.73,190.95 137.19,189.88 137.65,188.86 138.11,187.87 138.57,186.92 139.02,186.01 139.02,186.01 139.02,186.01 139.02,186.01 139.02,186.01 139.02,186.01 139.02,186.01 139.48,185.12 139.94,184.27 140.40,183.44 140.86,182.63 141.32,181.85 141.77,181.10 142.23,180.36 142.69,179.64 143.15,178.95 143.61,178.27 143.61,178.27 143.61,178.27 143.61,178.27 143.61,178.27 143.61,178.27 144.06,177.61 144.52,176.96 144.98,176.33 145.44,175.72 145.90,175.12 146.36,174.53 146.81,173.95 147.27,173.39 147.73,172.84 148.19,172.30 148.19,172.30 148.19,172.30 148.19,172.30 148.19,172.30 148.19,172.30 148.65,171.77 149.10,171.26 149.56,170.75 150.02,170.25 150.48,169.76 150.94,169.28 151.40,168.81 151.85,168.35 152.31,167.89 152.77,167.45 152.77,167.45 152.77,167.45 152.77,167.45 153.23,167.01 153.69,166.57 154.14,166.15 154.60,165.73 155.06,165.32 155.52,164.91 155.98,164.51 156.44,164.12 156.89,163.73 157.35,163.35 157.35,163.35 157.35,163.35 157.81,162.97 158.27,162.60 158.73,162.24 159.18,161.88 159.64,161.52 160.10,161.17 160.56,160.82 161.02,160.48 161.47,160.14 161.93,159.81 161.93,159.81 162.39,159.48 162.85,159.15 163.31,158.83 163.77,158.52 164.22,158.20 164.68,157.89 165.14,157.59 165.60,157.28 166.06,156.99 166.51,156.69 166.97,156.40 167.43,156.11 167.89,155.82 168.35,155.54 168.81,155.26 169.26,154.98 169.72,154.71 170.18,154.44 170.64,154.17 171.10,153.90 171.10,153.90 171.10,153.90 171.10,153.90 171.10,153.90 171.10,153.90 171.10,153.90 171.10,153.90 175.68,151.38 180.26,149.09 184.84,146.97 189.42,145.02 194.00,143.20 194.00,143.20 198.59,141.50 203.17,139.90 207.75,138.40 212.33,136.97 212.79,136.84 213.25,136.70 213.71,136.56 214.16,136.43 214.62,136.29 215.08,136.16 215.54,136.02 216.00,135.89 216.45,135.76 216.91,135.62 216.91,135.62 216.91,135.62 216.91,135.62 216.91,135.62 216.91,135.62 216.91,135.62 221.49,134.34 226.08,133.12 230.66,131.95 235.24,130.83 239.82,129.75 239.82,129.75 244.40,128.72 248.98,127.73 253.57,126.78 258.15,125.85 258.61,125.76 259.06,125.67 259.52,125.58 259.98,125.49 260.44,125.40 260.90,125.31 261.35,125.23 261.81,125.14 262.27,125.05 262.73,124.96 262.73,124.96 262.73,124.96 262.73,124.96 262.73,124.96 262.73,124.96 267.31,124.10 271.89,123.27 276.47,122.46 281.06,121.67 285.64,120.91 285.64,120.91 290.22,120.17 294.80,119.45 299.38,118.75 303.96,118.07 304.42,118.00 304.88,117.94 305.34,117.87 305.80,117.80 306.25,117.74 306.71,117.67 307.17,117.60 307.63,117.54 308.09,117.47 308.54,117.41 308.54,117.41 308.54,117.41 308.54,117.41 308.54,117.41 313.13,116.76 317.71,116.12 322.29,115.51 326.87,114.90 331.45,114.31 331.45,114.31 336.03,113.74 340.62,113.17 345.20,112.62 349.78,112.08 350.24,112.02 350.70,111.97 351.15,111.92 351.61,111.86 352.07,111.81 352.53,111.76 352.99,111.71 353.44,111.65 353.90,111.60 354.36,111.55 354.36,111.55 354.36,111.55 354.36,111.55 358.94,111.03 363.52,110.52 368.11,110.02 372.69,109.53 377.27,109.05 377.27,109.05 381.85,108.57 386.43,108.11 391.01,107.65 395.60,107.20 396.05,107.16 396.51,107.11 396.97,107.07 397.43,107.03 397.89,106.98 398.34,106.94 398.80,106.89 399.26,106.85 399.72,106.81 400.18,106.76 400.18,106.76 400.18,106.76 404.76,106.33 409.34,105.90 413.92,105.48 418.50,105.07 423.09,104.66 423.09,104.66 427.67,104.26 432.25,103.87 436.83,103.48 441.41,103.10 441.87,103.06 442.33,103.02 442.79,102.98 443.24,102.94 443.70,102.91 444.16,102.87 444.62,102.83 445.08,102.79 445.54,102.76 445.99,102.72 445.99,102.72 450.58,102.35 455.16,101.98 459.74,101.62 464.32,101.26 468.90,100.91 468.90,100.91 473.48,100.56 478.06,100.22 482.65,99.88 487.23,99.55 487.69,99.51 488.14,99.48 488.60,99.45 489.06,99.41 489.52,99.38 489.98,99.35 490.44,99.31 490.89,99.28 491.35,99.25 "
     style="stroke:#1b80e3;stroke-width:2.07;stroke-linecap:butt;stroke-dasharray:11.00775728, 11.00775728;stroke-dashoffset:0;stroke-opacity:1"
     id="polyline26" />
  <polyline
     points="83.59,254.74 83.59,254.74 83.59,254.74 83.59,254.74 83.59,254.74 83.59,254.74 84.05,254.74 84.50,254.74 84.96,254.74 85.42,254.74 85.88,254.74 86.34,254.74 86.79,254.74 87.25,254.74 87.71,254.74 88.17,254.74 88.63,254.74 89.09,254.74 89.54,254.74 90.00,254.74 90.46,254.74 90.92,254.74 91.38,254.74 91.83,254.74 92.29,254.74 92.75,254.74 92.75,254.74 93.21,254.74 93.67,254.74 94.12,254.74 94.58,254.74 95.04,254.74 95.50,254.74 95.96,254.74 96.42,254.74 96.87,254.74 97.33,254.74 97.33,254.74 97.33,254.74 97.79,254.74 98.25,254.74 98.71,254.74 99.16,254.74 99.62,254.74 100.08,254.74 100.54,254.74 101.00,254.74 101.46,254.74 101.91,254.74 101.91,254.74 101.91,254.74 101.91,254.74 102.37,254.74 102.83,254.74 103.29,254.74 103.75,254.74 104.20,254.74 104.66,254.74 105.12,254.74 105.58,254.74 106.04,254.74 106.50,254.74 106.50,254.74 106.50,254.74 106.50,254.74 106.50,254.74 106.50,254.74 106.95,254.74 107.41,254.74 107.87,254.74 108.33,254.74 108.79,254.74 109.24,254.74 109.70,254.74 110.16,254.74 110.62,254.74 111.08,254.74 111.08,254.74 111.08,254.74 111.08,254.74 111.08,254.74 111.08,254.74 111.54,254.74 111.99,254.74 112.45,254.74 112.91,254.74 113.37,254.74 113.83,254.74 114.28,254.74 114.74,254.74 115.20,254.74 115.66,254.74 115.66,254.74 115.66,254.74 115.66,254.74 115.66,254.74 115.66,254.74 115.66,254.74 116.12,254.74 116.57,254.74 117.03,254.74 117.49,254.74 117.95,254.74 118.41,254.74 118.87,254.74 119.32,254.74 119.78,254.74 120.24,254.74 120.24,254.74 120.24,254.74 120.24,254.74 120.24,254.74 120.24,254.74 120.24,254.74 120.24,254.74 120.70,254.74 121.16,254.74 121.61,254.74 122.07,254.74 122.53,254.74 122.99,254.74 123.45,254.74 123.91,254.74 124.36,254.74 124.82,254.74 124.82,254.74 124.82,254.74 124.82,254.74 124.82,254.74 124.82,254.74 124.82,254.74 124.82,254.74 124.82,254.74 125.28,254.74 125.74,254.74 125.74,254.74 126.20,254.74 126.20,254.74 126.20,254.74 126.65,254.74 126.65,254.74 126.65,254.74 126.65,254.74 127.11,254.74 127.11,254.74 127.11,254.74 127.11,254.74 127.11,254.74 127.57,254.74 127.57,254.74 127.57,254.74 127.57,254.74 127.57,254.74 127.57,254.74 128.03,254.74 128.03,254.74 128.03,254.74 128.03,254.74 128.03,254.74 128.03,254.74 128.03,254.74 128.49,254.74 128.49,254.74 128.49,254.74 128.49,254.74 128.49,254.74 128.49,254.74 128.49,254.74 128.49,254.74 128.95,254.74 128.95,254.74 128.95,254.74 128.95,254.74 128.95,254.74 128.95,254.74 128.95,254.74 128.95,254.74 128.95,254.74 129.40,254.74 129.40,254.74 129.40,254.74 129.40,254.74 129.40,254.74 129.40,254.74 129.40,254.74 129.40,254.74 129.40,254.74 129.40,254.74 129.40,254.74 129.40,254.74 129.40,254.74 129.40,254.74 129.40,254.74 129.40,254.74 129.40,254.74 129.40,254.74 129.40,254.74 129.40,254.74 129.40,254.74 129.40,254.74 129.40,254.74 129.40,254.74 129.40,254.74 129.40,254.74 129.40,254.74 129.40,254.74 129.86,254.74 129.86,254.74 129.86,254.74 129.86,254.74 129.86,254.74 129.86,254.74 129.86,254.74 129.86,254.74 129.86,254.74 130.32,254.74 130.32,254.74 130.32,254.74 130.32,254.74 130.32,254.74 130.32,254.74 130.32,254.74 130.32,254.74 130.78,254.74 130.78,254.74 130.78,254.74 130.78,254.74 130.78,254.74 130.78,254.74 130.78,254.74 131.24,254.74 131.24,254.74 131.24,254.74 131.24,254.74 131.24,254.74 131.24,254.74 131.69,254.74 131.69,254.74 131.69,254.74 131.69,254.74 131.69,254.74 132.15,254.74 132.15,254.74 132.15,254.74 132.15,254.74 132.61,254.74 132.61,254.74 132.61,254.74 133.07,254.74 133.07,254.74 133.53,254.74 133.99,254.74 133.99,254.74 133.99,254.74 133.99,254.74 133.99,254.74 133.99,254.74 133.99,254.74 133.99,254.74 133.99,254.74 134.44,254.74 134.90,254.74 135.36,254.74 135.82,254.74 136.28,254.74 136.73,254.74 137.19,254.74 137.65,254.74 138.11,254.74 138.57,254.74 138.57,254.74 138.57,254.74 138.57,254.74 138.57,254.74 138.57,254.74 138.57,254.74 138.57,254.74 139.02,254.74 139.48,254.74 139.94,254.74 140.40,254.74 140.86,254.74 141.32,254.74 141.77,254.74 142.23,254.74 142.69,254.74 143.15,254.74 143.15,254.74 143.15,254.74 143.15,254.74 143.15,254.74 143.15,254.74 143.15,254.74 143.61,254.74 144.06,254.74 144.52,251.38 144.98,250.31 145.44,249.29 145.90,248.30 146.36,247.34 146.81,246.42 147.27,245.54 147.73,244.68 147.73,244.68 147.73,244.68 147.73,244.68 147.73,244.68 147.73,244.68 148.19,243.85 148.65,243.04 149.10,242.26 149.56,241.50 150.02,240.76 150.48,240.04 150.94,239.34 151.40,238.66 151.85,238.00 152.31,237.35 152.31,237.35 152.31,237.35 152.31,237.35 152.31,237.35 152.31,237.35 152.77,236.72 153.23,236.10 153.69,235.50 154.14,234.91 154.60,234.34 155.06,233.77 155.52,233.22 155.98,232.68 156.44,232.15 156.89,231.63 156.89,231.63 156.89,231.63 156.89,231.63 157.35,231.13 157.81,230.63 158.27,230.14 158.73,229.66 159.18,229.18 159.64,228.72 160.10,228.26 160.56,227.82 161.02,227.38 161.47,226.94 161.47,226.94 161.47,226.94 161.93,226.52 162.39,226.10 162.85,225.69 163.31,225.28 163.77,224.88 164.22,224.49 164.68,224.10 165.14,223.71 165.60,223.34 166.06,222.97 166.06,222.97 166.51,222.60 166.97,222.24 167.43,221.88 167.89,221.53 168.35,221.18 168.81,220.84 169.26,220.50 169.72,220.17 170.18,219.84 170.64,219.51 171.10,219.19 171.55,218.87 172.01,218.56 172.47,218.25 172.93,217.94 173.39,217.64 173.85,217.34 174.30,217.05 174.76,216.75 175.22,216.46 175.22,216.46 175.22,216.46 175.22,216.46 175.22,216.46 175.22,216.46 175.22,216.46 175.22,216.46 179.80,213.73 184.38,211.26 188.96,209.00 193.55,206.92 198.13,204.99 198.13,204.99 202.71,203.20 207.29,201.52 211.87,199.94 216.45,198.45 216.91,198.30 217.37,198.16 217.83,198.02 218.29,197.88 218.75,197.73 219.20,197.59 219.66,197.45 220.12,197.31 220.58,197.18 221.04,197.04 221.04,197.04 221.04,197.04 221.04,197.04 221.04,197.04 221.04,197.04 221.04,197.04 225.62,195.70 230.20,194.43 234.78,193.22 239.36,192.06 243.94,190.95 243.94,190.95 248.53,189.88 253.11,188.86 257.69,187.87 262.27,186.92 262.73,186.83 263.19,186.74 263.64,186.65 264.10,186.55 264.56,186.46 265.02,186.37 265.48,186.28 265.94,186.19 266.39,186.10 266.85,186.01 266.85,186.01 266.85,186.01 266.85,186.01 266.85,186.01 266.85,186.01 271.43,185.12 276.02,184.27 280.60,183.44 285.18,182.63 289.76,181.85 289.76,181.85 294.34,181.10 298.92,180.36 303.51,179.64 308.09,178.95 308.54,178.88 309.00,178.81 309.46,178.74 309.92,178.67 310.38,178.61 310.84,178.54 311.29,178.47 311.75,178.40 312.21,178.34 312.67,178.27 312.67,178.27 312.67,178.27 312.67,178.27 312.67,178.27 317.25,177.61 321.83,176.96 326.41,176.33 330.99,175.72 335.58,175.12 335.58,175.12 340.16,174.53 344.74,173.95 349.32,173.39 353.90,172.84 354.36,172.79 354.82,172.73 355.28,172.68 355.74,172.62 356.19,172.57 356.65,172.52 357.11,172.46 357.57,172.41 358.03,172.36 358.48,172.30 358.48,172.30 358.48,172.30 358.48,172.30 363.07,171.77 367.65,171.26 372.23,170.75 376.81,170.25 381.39,169.76 381.39,169.76 385.97,169.28 390.56,168.81 395.14,168.35 399.72,167.89 400.18,167.85 400.64,167.80 401.09,167.76 401.55,167.71 402.01,167.67 402.47,167.62 402.93,167.58 403.38,167.53 403.84,167.49 404.30,167.45 404.30,167.45 404.30,167.45 408.88,167.01 413.46,166.57 418.05,166.15 422.63,165.73 427.21,165.32 427.21,165.32 431.79,164.91 436.37,164.51 440.95,164.12 445.54,163.73 445.99,163.69 446.45,163.66 446.91,163.62 447.37,163.58 447.83,163.54 448.28,163.50 448.74,163.46 449.20,163.43 449.66,163.39 450.12,163.35 450.12,163.35 454.70,162.97 459.28,162.60 463.86,162.24 468.44,161.88 473.03,161.52 473.03,161.52 477.61,161.17 482.19,160.82 486.77,160.48 491.35,160.14 "
     style="stroke:#104e8b;stroke-width:2.07;stroke-linecap:butt;stroke-dasharray:11.00775728,11.00775728;stroke-dashoffset:0"
     id="polyline28" />
  <polyline
     points="124.82,254.74 124.82,254.74 124.82,254.74 124.82,254.74 124.82,254.74 124.82,254.74 125.28,254.74 125.74,254.74 126.20,254.74 126.65,254.74 127.11,254.74 127.57,254.74 128.03,254.74 128.49,254.74 128.95,254.74 129.40,254.74 129.86,254.74 130.32,254.74 130.78,254.74 131.24,254.74 131.69,254.74 132.15,254.74 132.61,254.74 133.07,254.74 133.53,254.74 133.99,254.74 133.99,254.74 134.44,254.74 134.90,254.74 135.36,254.74 135.82,254.74 136.28,254.74 136.73,254.74 137.19,254.74 137.65,254.74 138.11,254.74 138.57,254.74 138.57,254.74 138.57,254.74 139.02,254.74 139.48,254.74 139.94,254.74 140.40,254.74 140.86,254.74 141.32,254.74 141.77,254.74 142.23,254.74 142.69,254.74 143.15,254.74 143.15,254.74 143.15,254.74 143.15,254.74 143.61,254.74 144.06,254.74 144.52,254.74 144.98,254.74 145.44,254.74 145.90,254.74 146.36,254.74 146.81,254.74 147.27,254.74 147.73,254.74 147.73,254.74 147.73,254.74 147.73,254.74 147.73,254.74 147.73,254.74 148.19,254.74 148.65,254.74 149.10,254.74 149.56,254.74 150.02,254.74 150.48,254.74 150.94,254.74 151.40,254.74 151.85,254.74 152.31,254.74 152.31,254.74 152.31,254.74 152.31,254.74 152.31,254.74 152.31,254.74 152.77,254.74 153.23,254.74 153.69,254.74 154.14,254.74 154.60,254.74 155.06,254.74 155.52,254.74 155.98,254.74 156.44,254.74 156.89,254.74 156.89,254.74 156.89,254.74 156.89,254.74 156.89,254.74 156.89,254.74 156.89,254.74 157.35,254.74 157.81,254.74 158.27,254.74 158.73,254.74 159.18,254.74 159.64,254.74 160.10,254.74 160.56,254.74 161.02,254.74 161.47,254.74 161.47,254.74 161.47,254.74 161.47,254.74 161.47,254.74 161.47,254.74 161.47,254.74 161.47,254.74 161.93,254.74 162.39,254.74 162.85,254.74 163.31,254.74 163.77,254.74 164.22,254.74 164.68,254.74 165.14,254.74 165.60,254.74 166.06,254.74 166.06,254.74 166.06,254.74 166.06,254.74 166.06,254.74 166.06,254.74 166.06,254.74 166.06,254.74 166.06,254.74 166.51,254.74 166.97,254.74 166.97,254.74 167.43,254.74 167.43,254.74 167.43,254.74 167.89,254.74 167.89,254.74 167.89,254.74 167.89,254.74 168.35,254.74 168.35,254.74 168.35,254.74 168.35,254.74 168.35,254.74 168.81,254.74 168.81,254.74 168.81,254.74 168.81,254.74 168.81,254.74 168.81,254.74 169.26,254.74 169.26,254.74 169.26,254.74 169.26,254.74 169.26,254.74 169.26,254.74 169.26,254.74 169.72,254.74 169.72,254.74 169.72,254.74 169.72,254.74 169.72,254.74 169.72,254.74 169.72,254.74 169.72,254.74 170.18,254.74 170.18,254.74 170.18,254.74 170.18,254.74 170.18,254.74 170.18,254.74 170.18,254.74 170.18,254.74 170.18,254.74 170.64,254.74 170.64,254.74 170.64,254.74 170.64,254.74 170.64,254.74 170.64,254.74 170.64,254.74 170.64,254.74 170.64,254.74 170.64,254.74 170.64,254.74 170.64,254.74 170.64,254.74 170.64,254.74 170.64,254.74 170.64,254.74 170.64,254.74 170.64,254.74 170.64,254.74 170.64,254.74 170.64,254.74 170.64,254.74 170.64,254.74 170.64,254.74 170.64,254.74 170.64,254.74 170.64,254.74 170.64,254.74 171.10,254.74 171.10,254.74 171.10,254.74 171.10,254.74 171.10,254.74 171.10,254.74 171.10,254.74 171.10,254.74 171.10,254.74 171.55,254.74 171.55,254.74 171.55,254.74 171.55,254.74 171.55,254.74 171.55,254.74 171.55,254.74 171.55,254.74 172.01,254.74 172.01,254.74 172.01,254.74 172.01,254.74 172.01,254.74 172.01,254.74 172.01,254.74 172.47,254.74 172.47,254.74 172.47,254.74 172.47,254.74 172.47,254.74 172.47,254.74 172.93,254.74 172.93,254.74 172.93,254.74 172.93,254.74 172.93,254.74 173.39,254.74 173.39,254.74 173.39,254.74 173.39,254.74 173.85,254.74 173.85,254.74 173.85,254.74 174.30,254.74 174.30,254.74 174.76,254.74 175.22,254.74 175.22,254.74 175.22,254.74 175.22,254.74 175.22,254.74 175.22,254.74 175.22,254.74 175.22,254.74 175.22,254.74 175.68,254.74 176.14,254.74 176.59,254.74 177.05,254.74 177.51,254.74 177.97,254.74 178.43,254.74 178.88,254.74 179.34,254.74 179.80,254.74 179.80,254.74 179.80,254.74 179.80,254.74 179.80,254.74 179.80,254.74 179.80,254.74 179.80,254.74 180.26,254.74 180.72,254.74 181.18,254.74 181.63,254.74 182.09,254.74 182.55,254.74 183.01,254.74 183.47,254.74 183.92,254.74 184.38,254.74 184.38,254.74 184.38,254.74 184.38,254.74 184.38,254.74 184.38,254.74 184.38,254.74 184.84,254.74 185.30,254.74 185.76,254.74 186.22,254.74 186.67,254.74 187.13,254.74 187.59,254.74 188.05,254.74 188.51,254.74 188.96,254.74 188.96,254.74 188.96,254.74 188.96,254.74 188.96,254.74 188.96,254.74 189.42,254.74 189.88,254.74 190.34,254.74 190.80,254.74 191.26,254.74 191.71,254.74 192.17,254.74 192.63,254.74 193.09,254.74 193.55,254.74 193.55,254.74 193.55,254.74 193.55,254.74 193.55,254.74 193.55,254.74 194.00,254.74 194.46,254.74 194.92,254.74 195.38,254.74 195.84,254.74 196.30,254.74 196.75,254.74 197.21,254.74 197.67,254.74 198.13,254.74 198.13,254.74 198.13,254.74 198.13,254.74 198.59,254.74 199.04,254.74 199.50,254.74 199.96,254.74 200.42,254.74 200.88,254.74 201.33,254.74 201.79,254.74 202.25,254.74 202.71,254.74 202.71,254.74 202.71,254.74 203.17,254.74 203.63,254.74 204.08,254.74 204.54,254.74 205.00,254.74 205.46,254.74 205.92,254.74 206.37,254.74 206.83,254.74 207.29,254.74 207.29,254.74 207.75,254.74 208.21,254.74 208.67,254.74 209.12,254.74 209.58,254.74 210.04,254.74 210.50,254.74 210.96,254.74 211.41,254.74 211.87,254.74 212.33,254.74 212.79,254.74 213.25,254.74 213.71,254.74 214.16,254.74 214.62,254.74 215.08,254.74 215.54,254.74 216.00,254.74 216.45,254.74 216.45,254.74 216.45,254.74 216.45,254.74 216.45,254.74 216.45,254.74 216.45,254.74 216.45,254.74 221.04,254.74 225.62,254.74 230.20,254.74 234.78,254.74 239.36,254.74 239.36,254.74 243.94,254.74 248.53,254.74 253.11,254.74 257.69,254.74 258.15,254.74 258.61,254.74 259.06,254.74 259.52,254.74 259.98,254.74 260.44,254.74 260.90,254.74 261.35,254.74 261.81,254.74 262.27,254.74 262.27,254.74 262.27,254.74 262.27,254.74 262.27,254.74 262.27,254.74 262.27,254.74 266.85,254.74 271.43,254.74 276.02,254.74 280.60,254.74 285.18,254.74 285.18,254.74 289.76,254.74 294.34,254.74 298.92,254.74 303.51,254.74 303.96,254.74 304.42,254.74 304.88,254.74 305.34,254.74 305.80,254.74 306.25,254.74 306.71,254.74 307.17,254.74 307.63,254.74 308.09,254.74 308.09,254.74 308.09,254.74 308.09,254.74 308.09,254.74 308.09,254.74 312.67,254.74 317.25,254.74 321.83,251.38 326.41,250.31 330.99,249.29 330.99,249.29 335.58,248.30 340.16,247.34 344.74,246.42 349.32,245.54 349.78,245.45 350.24,245.36 350.70,245.28 351.15,245.19 351.61,245.10 352.07,245.02 352.53,244.93 352.99,244.85 353.44,244.76 353.90,244.68 353.90,244.68 353.90,244.68 353.90,244.68 353.90,244.68 358.48,243.85 363.07,243.04 367.65,242.26 372.23,241.50 376.81,240.76 376.81,240.76 381.39,240.04 385.97,239.34 390.56,238.66 395.14,238.00 395.60,237.93 396.05,237.87 396.51,237.80 396.97,237.74 397.43,237.67 397.89,237.61 398.34,237.54 398.80,237.48 399.26,237.42 399.72,237.35 399.72,237.35 399.72,237.35 399.72,237.35 404.30,236.72 408.88,236.10 413.46,235.50 418.05,234.91 422.63,234.34 422.63,234.34 427.21,233.77 431.79,233.22 436.37,232.68 440.95,232.15 441.41,232.10 441.87,232.05 442.33,232.00 442.79,231.94 443.24,231.89 443.70,231.84 444.16,231.79 444.62,231.74 445.08,231.69 445.54,231.63 445.54,231.63 445.54,231.63 450.12,231.13 454.70,230.63 459.28,230.14 463.86,229.66 468.44,229.18 468.44,229.18 473.03,228.72 477.61,228.26 482.19,227.82 486.77,227.38 487.23,227.33 487.69,227.29 488.14,227.25 488.60,227.20 489.06,227.16 489.52,227.12 489.98,227.07 490.44,227.03 490.89,226.99 491.35,226.94 491.35,226.94 "
     style="stroke:#00003d;stroke-width:2.07;stroke-linecap:butt;stroke-dasharray:11.00775728, 11.00775728;stroke-dashoffset:0;stroke-opacity:1"
     id="polyline30" />
  <polyline
     points="79.05,254.74 79.05,254.74 79.05,254.74 79.05,254.74 79.05,254.74 79.05,254.74 79.51,254.74 79.97,254.74 80.43,254.74 80.88,254.74 81.34,254.74 81.80,254.74 82.26,254.74 82.72,254.74 83.17,254.74 83.63,254.74 84.09,254.74 84.55,254.74 85.01,254.74 85.47,254.74 85.92,254.74 86.38,254.74 86.84,254.74 87.30,254.74 87.76,254.74 88.21,254.74 88.21,254.74 88.67,254.74 89.13,254.74 89.59,254.74 90.05,254.74 90.51,254.74 90.96,254.74 91.42,254.74 91.88,254.74 92.34,254.74 92.80,254.74 92.80,254.74 92.80,254.74 93.25,254.74 93.71,254.74 94.17,254.74 94.63,254.74 95.09,254.74 95.55,254.74 96.00,254.74 96.46,254.74 96.92,254.74 97.38,254.74 97.38,254.74 97.38,254.74 97.38,254.74 97.84,254.74 98.29,254.74 98.75,254.74 99.21,254.74 99.67,254.74 100.13,254.74 100.59,254.74 101.04,254.74 101.50,254.74 101.96,254.74 101.96,254.74 101.96,254.74 101.96,254.74 101.96,254.74 101.96,254.74 102.42,254.74 102.88,254.74 103.33,254.74 103.79,254.74 104.25,254.74 104.71,254.74 105.17,254.74 105.62,254.74 106.08,254.74 106.54,254.74 106.54,254.74 106.54,254.74 106.54,254.74 106.54,254.74 106.54,254.74 107.00,254.74 107.46,254.74 107.92,254.74 108.37,254.74 108.83,254.74 109.29,254.74 109.75,254.74 110.21,254.74 110.66,254.74 111.12,254.74 111.12,254.74 111.12,254.74 111.12,254.74 111.12,254.74 111.12,254.74 111.12,254.74 111.58,254.74 112.04,254.74 112.50,254.74 112.96,254.74 113.41,254.74 113.87,254.74 114.33,254.74 114.79,254.74 115.25,254.74 115.70,254.74 115.70,254.74 115.70,254.74 115.70,254.74 115.70,254.74 115.70,254.74 115.70,254.74 115.70,254.74 116.16,254.74 116.62,254.74 117.08,254.74 117.54,254.74 118.00,254.74 118.45,254.74 118.91,254.74 119.37,254.74 119.83,254.74 120.29,254.74 120.29,254.74 120.29,254.74 120.29,254.74 120.29,254.74 120.29,254.74 120.29,254.74 120.29,254.74 120.29,254.74 120.74,254.74 121.20,254.74 121.20,254.74 121.66,254.74 121.66,254.74 121.66,254.74 122.12,254.74 122.12,254.74 122.12,254.74 122.12,254.74 122.58,254.74 122.58,254.74 122.58,254.74 122.58,254.74 122.58,254.74 123.03,254.74 123.03,254.74 123.03,254.74 123.03,254.74 123.03,254.74 123.03,254.74 123.49,254.74 123.49,254.74 123.49,254.74 123.49,254.74 123.49,254.74 123.49,254.74 123.49,254.74 123.95,254.74 123.95,254.74 123.95,254.74 123.95,254.74 123.95,254.74 123.95,254.74 123.95,254.74 123.95,254.74 124.41,254.74 124.41,254.74 124.41,254.74 124.41,254.74 124.41,254.74 124.41,254.74 124.41,254.74 124.41,254.74 124.41,254.74 124.87,254.74 124.87,254.74 124.87,254.74 124.87,254.74 124.87,254.74 124.87,254.74 124.87,254.74 124.87,254.74 124.87,254.74 124.87,254.74 124.87,254.74 124.87,254.74 124.87,254.74 124.87,254.74 124.87,254.74 124.87,254.74 124.87,254.74 124.87,254.74 124.87,254.74 124.87,254.74 124.87,254.74 124.87,254.74 124.87,254.74 124.87,254.74 124.87,254.74 124.87,254.74 124.87,254.74 124.87,254.74 125.33,199.53 125.33,199.53 125.33,199.53 125.33,199.53 125.33,199.53 125.33,199.53 125.33,199.53 125.33,199.53 125.33,199.53 125.78,180.21 125.78,180.21 125.78,180.21 125.78,180.21 125.78,180.21 125.78,180.21 125.78,180.21 125.78,180.21 126.24,169.17 126.24,169.17 126.24,169.17 126.24,169.17 126.24,169.17 126.24,169.17 126.24,169.17 126.70,160.89 126.70,160.89 126.70,160.89 126.70,160.89 126.70,160.89 126.70,160.89 127.16,155.37 127.16,155.37 127.16,155.37 127.16,155.37 127.16,155.37 127.62,149.85 127.62,149.85 127.62,149.85 127.62,149.85 128.07,144.33 128.07,144.33 128.07,144.33 128.53,141.57 128.53,141.57 128.99,138.81 129.45,136.05 129.45,136.05 129.45,136.05 129.45,136.05 129.45,136.05 129.45,136.05 129.45,136.05 129.45,136.05 129.45,136.05 129.91,133.29 130.37,130.53 130.82,127.76 131.28,127.76 131.74,125.00 132.20,122.24 132.66,122.24 133.11,119.48 133.57,119.48 134.03,116.72 134.03,116.72 134.03,116.72 134.03,116.72 134.03,116.72 134.03,116.72 134.03,116.72 134.03,116.72 134.49,116.72 134.95,113.96 135.41,113.96 135.86,113.96 136.32,111.20 136.78,111.20 137.24,108.44 137.70,108.44 138.15,108.44 138.61,105.68 138.61,105.68 138.61,105.68 138.61,105.68 138.61,105.68 138.61,105.68 138.61,105.68 139.07,105.68 139.53,105.68 139.99,102.92 140.45,102.92 140.90,102.92 141.36,102.92 141.82,100.16 142.28,100.16 142.74,100.16 143.19,100.16 143.19,100.16 143.19,100.16 143.19,100.16 143.19,100.16 143.19,100.16 143.65,97.40 144.11,97.40 144.57,97.40 145.03,97.40 145.48,97.40 145.94,94.64 146.40,94.64 146.86,94.64 147.32,94.64 147.78,94.64 147.78,94.64 147.78,94.64 147.78,94.64 147.78,94.64 147.78,94.64 148.23,91.88 148.69,91.88 149.15,91.88 149.61,91.88 150.07,91.88 150.52,89.12 150.98,89.12 151.44,89.12 151.90,89.12 152.36,89.12 152.36,89.12 152.36,89.12 152.36,89.12 152.82,89.12 153.27,86.36 153.73,86.36 154.19,86.36 154.65,86.36 155.11,86.36 155.56,86.36 156.02,86.36 156.48,83.60 156.94,83.60 156.94,83.60 156.94,83.60 157.40,83.60 157.86,83.60 158.31,83.60 158.77,83.60 159.23,83.60 159.69,83.60 160.15,80.84 160.60,80.84 161.06,80.84 161.52,80.84 161.52,80.84 161.98,80.84 162.44,80.84 162.90,80.84 163.35,80.84 163.81,78.08 164.27,78.08 164.73,78.08 165.19,78.08 165.64,78.08 166.10,78.08 166.56,78.08 167.02,78.08 167.48,78.08 167.93,78.08 168.39,75.32 168.85,75.32 169.31,75.32 169.77,75.32 170.23,75.32 170.68,75.32 170.68,75.32 170.68,75.32 170.68,75.32 170.68,75.32 170.68,75.32 170.68,75.32 170.68,75.32 175.27,72.56 179.85,69.80 184.43,67.04 189.01,67.04 193.59,64.28 193.59,64.28 198.17,61.52 202.76,61.52 207.34,58.76 211.92,58.76 212.38,58.76 212.83,58.76 213.29,58.76 213.75,58.76 214.21,58.76 214.67,58.76 215.13,58.76 215.58,55.99 216.04,55.99 216.50,55.99 216.50,55.99 216.50,55.99 216.50,55.99 216.50,55.99 216.50,55.99 216.50,55.99 221.08,55.99 225.66,53.23 230.24,53.23 234.83,53.23 239.41,50.47 239.41,50.47 243.99,50.47 248.57,50.47 253.15,47.71 257.73,47.71 258.19,47.71 258.65,47.71 259.11,47.71 259.57,47.71 260.03,47.71 260.48,47.71 260.94,47.71 261.40,47.71 261.86,47.71 262.32,47.71 262.32,47.71 262.32,47.71 262.32,47.71 262.32,47.71 262.32,47.71 266.90,44.95 271.48,44.95 276.06,44.95 280.64,42.19 285.22,42.19 285.22,42.19 289.81,42.19 294.39,42.19 298.97,39.43 303.55,39.43 304.01,39.43 304.47,39.43 304.93,39.43 305.38,39.43 305.84,39.43 306.30,39.43 306.76,39.43 307.22,39.43 307.67,39.43 308.13,39.43 308.13,39.43 308.13,39.43 308.13,39.43 308.13,39.43 312.71,39.43 317.30,36.67 321.88,36.67 326.46,36.67 331.04,36.67 331.04,36.67 335.62,33.91 340.20,33.91 344.79,33.91 349.37,33.91 349.83,33.91 350.28,33.91 350.74,33.91 351.20,33.91 351.66,33.91 352.12,33.91 352.57,33.91 353.03,33.91 353.49,33.91 353.95,33.91 353.95,33.91 353.95,33.91 353.95,33.91 358.53,31.15 363.11,31.15 367.69,31.15 372.28,31.15 376.86,31.15 376.86,31.15 381.44,31.15 386.02,28.39 390.60,28.39 395.18,28.39 395.64,28.39 396.10,28.39 396.56,28.39 397.02,28.39 397.47,28.39 397.93,28.39 398.39,28.39 398.85,28.39 399.31,28.39 399.76,28.39 399.76,28.39 399.76,28.39 404.35,28.39 408.93,28.39 413.51,25.63 418.09,25.63 422.67,25.63 422.67,25.63 427.25,25.63 431.84,25.63 436.42,25.63 441.00,25.63 441.46,25.63 441.92,25.63 442.37,25.63 442.83,25.63 443.29,25.63 443.75,25.63 444.21,25.63 444.66,22.87 445.12,22.87 445.58,22.87 445.58,22.87 450.16,22.87 454.74,22.87 459.33,22.87 463.91,22.87 468.49,22.87 468.49,22.87 473.07,22.87 477.65,22.87 482.23,20.11 486.82,20.11 487.27,20.11 487.73,20.11 488.19,20.11 488.65,20.11 489.11,20.11 489.56,20.11 490.02,20.11 490.48,20.11 490.94,20.11 "
     style="stroke:#40a1ff;stroke-width:2.07;stroke-linecap:butt;stroke-dasharray:none;stroke-opacity:1"
     id="polyline32" />
  <polyline
     points="79.46,254.74 79.46,254.74 79.46,254.74 79.46,254.74 79.46,254.74 79.46,254.74 79.92,254.74 80.38,254.74 80.84,254.74 81.30,254.74 81.75,254.74 82.21,254.74 82.67,254.74 83.13,254.74 83.59,254.74 84.05,254.74 84.50,254.74 84.96,254.74 85.42,254.74 85.88,254.74 86.34,254.74 86.79,254.74 87.25,254.74 87.71,254.74 88.17,254.74 88.63,254.74 88.63,254.74 89.09,254.74 89.54,254.74 90.00,254.74 90.46,254.74 90.92,254.74 91.38,254.74 91.83,254.74 92.29,254.74 92.75,254.74 93.21,254.74 93.21,254.74 93.21,254.74 93.67,254.74 94.12,254.74 94.58,254.74 95.04,254.74 95.50,254.74 95.96,254.74 96.42,254.74 96.87,254.74 97.33,254.74 97.79,254.74 97.79,254.74 97.79,254.74 97.79,254.74 98.25,254.74 98.71,254.74 99.16,254.74 99.62,254.74 100.08,254.74 100.54,254.74 101.00,254.74 101.46,254.74 101.91,254.74 102.37,254.74 102.37,254.74 102.37,254.74 102.37,254.74 102.37,254.74 102.37,254.74 102.83,254.74 103.29,254.74 103.75,254.74 104.20,254.74 104.66,254.74 105.12,254.74 105.58,254.74 106.04,254.74 106.50,254.74 106.95,254.74 106.95,254.74 106.95,254.74 106.95,254.74 106.95,254.74 106.95,254.74 107.41,254.74 107.87,254.74 108.33,254.74 108.79,254.74 109.24,254.74 109.70,254.74 110.16,254.74 110.62,254.74 111.08,254.74 111.54,254.74 111.54,254.74 111.54,254.74 111.54,254.74 111.54,254.74 111.54,254.74 111.54,254.74 111.99,254.74 112.45,254.74 112.91,254.74 113.37,254.74 113.83,254.74 114.28,254.74 114.74,254.74 115.20,254.74 115.66,254.74 116.12,254.74 116.12,254.74 116.12,254.74 116.12,254.74 116.12,254.74 116.12,254.74 116.12,254.74 116.12,254.74 116.57,254.74 117.03,254.74 117.49,254.74 117.95,254.74 118.41,254.74 118.87,254.74 119.32,254.74 119.78,254.74 120.24,254.74 120.70,254.74 120.70,254.74 120.70,254.74 120.70,254.74 120.70,254.74 120.70,254.74 120.70,254.74 120.70,254.74 120.70,254.74 121.16,254.74 121.61,254.74 121.61,254.74 122.07,254.74 122.07,254.74 122.07,254.74 122.53,254.74 122.53,254.74 122.53,254.74 122.53,254.74 122.99,254.74 122.99,254.74 122.99,254.74 122.99,254.74 122.99,254.74 123.45,254.74 123.45,254.74 123.45,254.74 123.45,254.74 123.45,254.74 123.45,254.74 123.91,254.74 123.91,254.74 123.91,254.74 123.91,254.74 123.91,254.74 123.91,254.74 123.91,254.74 124.36,254.74 124.36,254.74 124.36,254.74 124.36,254.74 124.36,254.74 124.36,254.74 124.36,254.74 124.36,254.74 124.82,254.74 124.82,254.74 124.82,254.74 124.82,254.74 124.82,254.74 124.82,254.74 124.82,254.74 124.82,254.74 124.82,254.74 125.28,254.74 125.28,254.74 125.28,254.74 125.28,254.74 125.28,254.74 125.28,254.74 125.28,254.74 125.28,254.74 125.28,254.74 125.28,254.74 125.28,254.74 125.28,254.74 125.28,254.74 125.28,254.74 125.28,254.74 125.28,254.74 125.28,254.74 125.28,254.74 125.28,254.74 125.28,254.74 125.28,254.74 125.28,254.74 125.28,254.74 125.28,254.74 125.28,254.74 125.28,254.74 125.28,254.74 125.28,254.74 125.74,254.74 125.74,254.74 125.74,254.74 125.74,254.74 125.74,254.74 125.74,254.74 125.74,254.74 125.74,254.74 125.74,254.74 126.20,254.74 126.20,254.74 126.20,254.74 126.20,254.74 126.20,254.74 126.20,254.74 126.20,254.74 126.20,254.74 126.65,238.18 126.65,238.18 126.65,238.18 126.65,238.18 126.65,238.18 126.65,238.18 126.65,238.18 127.11,227.14 127.11,227.14 127.11,227.14 127.11,227.14 127.11,227.14 127.11,227.14 127.57,221.62 127.57,221.62 127.57,221.62 127.57,221.62 127.57,221.62 128.03,213.34 128.03,213.34 128.03,213.34 128.03,213.34 128.49,210.58 128.49,210.58 128.49,210.58 128.95,205.06 128.95,205.06 129.40,202.30 129.86,199.53 129.86,199.53 129.86,199.53 129.86,199.53 129.86,199.53 129.86,199.53 129.86,199.53 129.86,199.53 129.86,199.53 130.32,196.77 130.78,194.01 131.24,191.25 131.69,188.49 132.15,188.49 132.61,185.73 133.07,182.97 133.53,182.97 133.99,180.21 134.44,180.21 134.44,180.21 134.44,180.21 134.44,180.21 134.44,180.21 134.44,180.21 134.44,180.21 134.44,180.21 134.90,177.45 135.36,177.45 135.82,174.69 136.28,174.69 136.73,171.93 137.19,171.93 137.65,171.93 138.11,169.17 138.57,169.17 139.02,169.17 139.02,169.17 139.02,169.17 139.02,169.17 139.02,169.17 139.02,169.17 139.02,169.17 139.48,166.41 139.94,166.41 140.40,166.41 140.86,163.65 141.32,163.65 141.77,163.65 142.23,163.65 142.69,160.89 143.15,160.89 143.61,160.89 143.61,160.89 143.61,160.89 143.61,160.89 143.61,160.89 143.61,160.89 144.06,160.89 144.52,158.13 144.98,158.13 145.44,158.13 145.90,158.13 146.36,155.37 146.81,155.37 147.27,155.37 147.73,155.37 148.19,155.37 148.19,155.37 148.19,155.37 148.19,155.37 148.19,155.37 148.19,155.37 148.65,152.61 149.10,152.61 149.56,152.61 150.02,152.61 150.48,152.61 150.94,149.85 151.40,149.85 151.85,149.85 152.31,149.85 152.77,149.85 152.77,149.85 152.77,149.85 152.77,149.85 153.23,149.85 153.69,149.85 154.14,147.09 154.60,147.09 155.06,147.09 155.52,147.09 155.98,147.09 156.44,147.09 156.89,144.33 157.35,144.33 157.35,144.33 157.35,144.33 157.81,144.33 158.27,144.33 158.73,144.33 159.18,144.33 159.64,144.33 160.10,144.33 160.56,141.57 161.02,141.57 161.47,141.57 161.93,141.57 161.93,141.57 162.39,141.57 162.85,141.57 163.31,141.57 163.77,141.57 164.22,138.81 164.68,138.81 165.14,138.81 165.60,138.81 166.06,138.81 166.51,138.81 166.97,138.81 167.43,138.81 167.89,138.81 168.35,136.05 168.81,136.05 169.26,136.05 169.72,136.05 170.18,136.05 170.64,136.05 171.10,136.05 171.10,136.05 171.10,136.05 171.10,136.05 171.10,136.05 171.10,136.05 171.10,136.05 171.10,136.05 175.68,133.29 180.26,130.53 184.84,127.76 189.42,127.76 194.00,125.00 194.00,125.00 198.59,122.24 203.17,122.24 207.75,119.48 212.33,119.48 212.79,119.48 213.25,119.48 213.71,119.48 214.16,119.48 214.62,119.48 215.08,116.72 215.54,116.72 216.00,116.72 216.45,116.72 216.91,116.72 216.91,116.72 216.91,116.72 216.91,116.72 216.91,116.72 216.91,116.72 216.91,116.72 221.49,116.72 226.08,113.96 230.66,113.96 235.24,113.96 239.82,111.20 239.82,111.20 244.40,111.20 248.98,108.44 253.57,108.44 258.15,108.44 258.61,108.44 259.06,108.44 259.52,108.44 259.98,108.44 260.44,108.44 260.90,108.44 261.35,105.68 261.81,105.68 262.27,105.68 262.73,105.68 262.73,105.68 262.73,105.68 262.73,105.68 262.73,105.68 262.73,105.68 267.31,105.68 271.89,105.68 276.47,102.92 281.06,102.92 285.64,102.92 285.64,102.92 290.22,102.92 294.80,100.16 299.38,100.16 303.96,100.16 304.42,100.16 304.88,100.16 305.34,100.16 305.80,100.16 306.25,100.16 306.71,100.16 307.17,100.16 307.63,100.16 308.09,100.16 308.54,100.16 308.54,100.16 308.54,100.16 308.54,100.16 308.54,100.16 313.13,97.40 317.71,97.40 322.29,97.40 326.87,97.40 331.45,97.40 331.45,97.40 336.03,94.64 340.62,94.64 345.20,94.64 349.78,94.64 350.24,94.64 350.70,94.64 351.15,94.64 351.61,94.64 352.07,94.64 352.53,94.64 352.99,94.64 353.44,94.64 353.90,94.64 354.36,94.64 354.36,94.64 354.36,94.64 354.36,94.64 358.94,91.88 363.52,91.88 368.11,91.88 372.69,91.88 377.27,91.88 377.27,91.88 381.85,89.12 386.43,89.12 391.01,89.12 395.60,89.12 396.05,89.12 396.51,89.12 396.97,89.12 397.43,89.12 397.89,89.12 398.34,89.12 398.80,89.12 399.26,89.12 399.72,89.12 400.18,89.12 400.18,89.12 400.18,89.12 404.76,89.12 409.34,86.36 413.92,86.36 418.50,86.36 423.09,86.36 423.09,86.36 427.67,86.36 432.25,86.36 436.83,86.36 441.41,83.60 441.87,83.60 442.33,83.60 442.79,83.60 443.24,83.60 443.70,83.60 444.16,83.60 444.62,83.60 445.08,83.60 445.54,83.60 445.99,83.60 445.99,83.60 450.58,83.60 455.16,83.60 459.74,83.60 464.32,83.60 468.90,83.60 468.90,83.60 473.48,83.60 478.06,80.84 482.65,80.84 487.23,80.84 487.69,80.84 488.14,80.84 488.60,80.84 489.06,80.84 489.52,80.84 489.98,80.84 490.44,80.84 490.89,80.84 491.35,80.84 "
     style="stroke:#1b80e3;stroke-width:2.07;stroke-linecap:butt;stroke-dasharray:none;stroke-opacity:1"
     id="polyline34" />
  <polyline
     points="83.59,254.74 83.59,254.74 83.59,254.74 83.59,254.74 83.59,254.74 83.59,254.74 84.05,254.74 84.50,254.74 84.96,254.74 85.42,254.74 85.88,254.74 86.34,254.74 86.79,254.74 87.25,254.74 87.71,254.74 88.17,254.74 88.63,254.74 89.09,254.74 89.54,254.74 90.00,254.74 90.46,254.74 90.92,254.74 91.38,254.74 91.83,254.74 92.29,254.74 92.75,254.74 92.75,254.74 93.21,254.74 93.67,254.74 94.12,254.74 94.58,254.74 95.04,254.74 95.50,254.74 95.96,254.74 96.42,254.74 96.87,254.74 97.33,254.74 97.33,254.74 97.33,254.74 97.79,254.74 98.25,254.74 98.71,254.74 99.16,254.74 99.62,254.74 100.08,254.74 100.54,254.74 101.00,254.74 101.46,254.74 101.91,254.74 101.91,254.74 101.91,254.74 101.91,254.74 102.37,254.74 102.83,254.74 103.29,254.74 103.75,254.74 104.20,254.74 104.66,254.74 105.12,254.74 105.58,254.74 106.04,254.74 106.50,254.74 106.50,254.74 106.50,254.74 106.50,254.74 106.50,254.74 106.50,254.74 106.95,254.74 107.41,254.74 107.87,254.74 108.33,254.74 108.79,254.74 109.24,254.74 109.70,254.74 110.16,254.74 110.62,254.74 111.08,254.74 111.08,254.74 111.08,254.74 111.08,254.74 111.08,254.74 111.08,254.74 111.54,254.74 111.99,254.74 112.45,254.74 112.91,254.74 113.37,254.74 113.83,254.74 114.28,254.74 114.74,254.74 115.20,254.74 115.66,254.74 115.66,254.74 115.66,254.74 115.66,254.74 115.66,254.74 115.66,254.74 115.66,254.74 116.12,254.74 116.57,254.74 117.03,254.74 117.49,254.74 117.95,254.74 118.41,254.74 118.87,254.74 119.32,254.74 119.78,254.74 120.24,254.74 120.24,254.74 120.24,254.74 120.24,254.74 120.24,254.74 120.24,254.74 120.24,254.74 120.24,254.74 120.70,254.74 121.16,254.74 121.61,254.74 122.07,254.74 122.53,254.74 122.99,254.74 123.45,254.74 123.91,254.74 124.36,254.74 124.82,254.74 124.82,254.74 124.82,254.74 124.82,254.74 124.82,254.74 124.82,254.74 124.82,254.74 124.82,254.74 124.82,254.74 125.28,254.74 125.74,254.74 125.74,254.74 126.20,254.74 126.20,254.74 126.20,254.74 126.65,254.74 126.65,254.74 126.65,254.74 126.65,254.74 127.11,254.74 127.11,254.74 127.11,254.74 127.11,254.74 127.11,254.74 127.57,254.74 127.57,254.74 127.57,254.74 127.57,254.74 127.57,254.74 127.57,254.74 128.03,254.74 128.03,254.74 128.03,254.74 128.03,254.74 128.03,254.74 128.03,254.74 128.03,254.74 128.49,254.74 128.49,254.74 128.49,254.74 128.49,254.74 128.49,254.74 128.49,254.74 128.49,254.74 128.49,254.74 128.95,254.74 128.95,254.74 128.95,254.74 128.95,254.74 128.95,254.74 128.95,254.74 128.95,254.74 128.95,254.74 128.95,254.74 129.40,254.74 129.40,254.74 129.40,254.74 129.40,254.74 129.40,254.74 129.40,254.74 129.40,254.74 129.40,254.74 129.40,254.74 129.40,254.74 129.40,254.74 129.40,254.74 129.40,254.74 129.40,254.74 129.40,254.74 129.40,254.74 129.40,254.74 129.40,254.74 129.40,254.74 129.40,254.74 129.40,254.74 129.40,254.74 129.40,254.74 129.40,254.74 129.40,254.74 129.40,254.74 129.40,254.74 129.40,254.74 129.86,254.74 129.86,254.74 129.86,254.74 129.86,254.74 129.86,254.74 129.86,254.74 129.86,254.74 129.86,254.74 129.86,254.74 130.32,254.74 130.32,254.74 130.32,254.74 130.32,254.74 130.32,254.74 130.32,254.74 130.32,254.74 130.32,254.74 130.78,254.74 130.78,254.74 130.78,254.74 130.78,254.74 130.78,254.74 130.78,254.74 130.78,254.74 131.24,254.74 131.24,254.74 131.24,254.74 131.24,254.74 131.24,254.74 131.24,254.74 131.69,254.74 131.69,254.74 131.69,254.74 131.69,254.74 131.69,254.74 132.15,254.74 132.15,254.74 132.15,254.74 132.15,254.74 132.61,254.74 132.61,254.74 132.61,254.74 133.07,254.74 133.07,254.74 133.53,254.74 133.99,254.74 133.99,254.74 133.99,254.74 133.99,254.74 133.99,254.74 133.99,254.74 133.99,254.74 133.99,254.74 133.99,254.74 134.44,254.74 134.90,254.74 135.36,254.74 135.82,254.74 136.28,254.74 136.73,254.74 137.19,254.74 137.65,254.74 138.11,254.74 138.57,254.74 138.57,254.74 138.57,254.74 138.57,254.74 138.57,254.74 138.57,254.74 138.57,254.74 138.57,254.74 139.02,254.74 139.48,254.74 139.94,251.98 140.40,249.22 140.86,246.46 141.32,246.46 141.77,243.70 142.23,243.70 142.69,240.94 143.15,238.18 143.15,238.18 143.15,238.18 143.15,238.18 143.15,238.18 143.15,238.18 143.15,238.18 143.61,238.18 144.06,238.18 144.52,235.42 144.98,235.42 145.44,232.66 145.90,232.66 146.36,229.90 146.81,229.90 147.27,229.90 147.73,227.14 147.73,227.14 147.73,227.14 147.73,227.14 147.73,227.14 147.73,227.14 148.19,227.14 148.65,227.14 149.10,224.38 149.56,224.38 150.02,224.38 150.48,224.38 150.94,221.62 151.40,221.62 151.85,221.62 152.31,221.62 152.31,221.62 152.31,221.62 152.31,221.62 152.31,221.62 152.31,221.62 152.77,218.86 153.23,218.86 153.69,218.86 154.14,218.86 154.60,216.10 155.06,216.10 155.52,216.10 155.98,216.10 156.44,216.10 156.89,213.34 156.89,213.34 156.89,213.34 156.89,213.34 157.35,213.34 157.81,213.34 158.27,213.34 158.73,213.34 159.18,213.34 159.64,210.58 160.10,210.58 160.56,210.58 161.02,210.58 161.47,210.58 161.47,210.58 161.47,210.58 161.93,210.58 162.39,207.82 162.85,207.82 163.31,207.82 163.77,207.82 164.22,207.82 164.68,207.82 165.14,205.06 165.60,205.06 166.06,205.06 166.06,205.06 166.51,205.06 166.97,205.06 167.43,205.06 167.89,205.06 168.35,205.06 168.81,202.30 169.26,202.30 169.72,202.30 170.18,202.30 170.64,202.30 171.10,202.30 171.55,202.30 172.01,202.30 172.47,199.53 172.93,199.53 173.39,199.53 173.85,199.53 174.30,199.53 174.76,199.53 175.22,199.53 175.22,199.53 175.22,199.53 175.22,199.53 175.22,199.53 175.22,199.53 175.22,199.53 175.22,199.53 179.80,196.77 184.38,194.01 188.96,191.25 193.55,188.49 198.13,188.49 198.13,188.49 202.71,185.73 207.29,182.97 211.87,182.97 216.45,180.21 216.91,180.21 217.37,180.21 217.83,180.21 218.29,180.21 218.75,180.21 219.20,180.21 219.66,180.21 220.12,180.21 220.58,180.21 221.04,180.21 221.04,180.21 221.04,180.21 221.04,180.21 221.04,180.21 221.04,180.21 221.04,180.21 225.62,177.45 230.20,177.45 234.78,174.69 239.36,174.69 243.94,171.93 243.94,171.93 248.53,171.93 253.11,171.93 257.69,169.17 262.27,169.17 262.73,169.17 263.19,169.17 263.64,169.17 264.10,169.17 264.56,169.17 265.02,169.17 265.48,169.17 265.94,169.17 266.39,169.17 266.85,169.17 266.85,169.17 266.85,169.17 266.85,169.17 266.85,169.17 266.85,169.17 271.43,166.41 276.02,166.41 280.60,166.41 285.18,163.65 289.76,163.65 289.76,163.65 294.34,163.65 298.92,163.65 303.51,160.89 308.09,160.89 308.54,160.89 309.00,160.89 309.46,160.89 309.92,160.89 310.38,160.89 310.84,160.89 311.29,160.89 311.75,160.89 312.21,160.89 312.67,160.89 312.67,160.89 312.67,160.89 312.67,160.89 312.67,160.89 317.25,160.89 321.83,158.13 326.41,158.13 330.99,158.13 335.58,158.13 335.58,158.13 340.16,155.37 344.74,155.37 349.32,155.37 353.90,155.37 354.36,155.37 354.82,155.37 355.28,155.37 355.74,155.37 356.19,155.37 356.65,155.37 357.11,155.37 357.57,155.37 358.03,155.37 358.48,155.37 358.48,155.37 358.48,155.37 358.48,155.37 363.07,152.61 367.65,152.61 372.23,152.61 376.81,152.61 381.39,152.61 381.39,152.61 385.97,149.85 390.56,149.85 395.14,149.85 399.72,149.85 400.18,149.85 400.64,149.85 401.09,149.85 401.55,149.85 402.01,149.85 402.47,149.85 402.93,149.85 403.38,149.85 403.84,149.85 404.30,149.85 404.30,149.85 404.30,149.85 408.88,149.85 413.46,149.85 418.05,147.09 422.63,147.09 427.21,147.09 427.21,147.09 431.79,147.09 436.37,147.09 440.95,147.09 445.54,144.33 445.99,144.33 446.45,144.33 446.91,144.33 447.37,144.33 447.83,144.33 448.28,144.33 448.74,144.33 449.20,144.33 449.66,144.33 450.12,144.33 450.12,144.33 454.70,144.33 459.28,144.33 463.86,144.33 468.44,144.33 473.03,144.33 473.03,144.33 477.61,144.33 482.19,141.57 486.77,141.57 491.35,141.57 "
     style="stroke:#104e8b;stroke-width:2.07;stroke-linecap:butt;stroke-dasharray:none"
     id="polyline36" />
  <polyline
     points="124.82,254.74 124.82,254.74 124.82,254.74 124.82,254.74 124.82,254.74 124.82,254.74 125.28,254.74 125.74,254.74 126.20,254.74 126.65,254.74 127.11,254.74 127.57,254.74 128.03,254.74 128.49,254.74 128.95,254.74 129.40,254.74 129.86,254.74 130.32,254.74 130.78,254.74 131.24,254.74 131.69,254.74 132.15,254.74 132.61,254.74 133.07,254.74 133.53,254.74 133.99,254.74 133.99,254.74 134.44,254.74 134.90,254.74 135.36,254.74 135.82,254.74 136.28,254.74 136.73,254.74 137.19,254.74 137.65,254.74 138.11,254.74 138.57,254.74 138.57,254.74 138.57,254.74 139.02,254.74 139.48,254.74 139.94,254.74 140.40,254.74 140.86,254.74 141.32,254.74 141.77,254.74 142.23,254.74 142.69,254.74 143.15,254.74 143.15,254.74 143.15,254.74 143.15,254.74 143.61,254.74 144.06,254.74 144.52,254.74 144.98,254.74 145.44,254.74 145.90,254.74 146.36,254.74 146.81,254.74 147.27,254.74 147.73,254.74 147.73,254.74 147.73,254.74 147.73,254.74 147.73,254.74 147.73,254.74 148.19,254.74 148.65,254.74 149.10,254.74 149.56,254.74 150.02,254.74 150.48,254.74 150.94,254.74 151.40,254.74 151.85,254.74 152.31,254.74 152.31,254.74 152.31,254.74 152.31,254.74 152.31,254.74 152.31,254.74 152.77,254.74 153.23,254.74 153.69,254.74 154.14,254.74 154.60,254.74 155.06,254.74 155.52,254.74 155.98,254.74 156.44,254.74 156.89,254.74 156.89,254.74 156.89,254.74 156.89,254.74 156.89,254.74 156.89,254.74 156.89,254.74 157.35,254.74 157.81,254.74 158.27,254.74 158.73,254.74 159.18,254.74 159.64,254.74 160.10,254.74 160.56,254.74 161.02,254.74 161.47,254.74 161.47,254.74 161.47,254.74 161.47,254.74 161.47,254.74 161.47,254.74 161.47,254.74 161.47,254.74 161.93,254.74 162.39,254.74 162.85,254.74 163.31,254.74 163.77,254.74 164.22,254.74 164.68,254.74 165.14,254.74 165.60,254.74 166.06,254.74 166.06,254.74 166.06,254.74 166.06,254.74 166.06,254.74 166.06,254.74 166.06,254.74 166.06,254.74 166.06,254.74 166.51,254.74 166.97,254.74 166.97,254.74 167.43,254.74 167.43,254.74 167.43,254.74 167.89,254.74 167.89,254.74 167.89,254.74 167.89,254.74 168.35,254.74 168.35,254.74 168.35,254.74 168.35,254.74 168.35,254.74 168.81,254.74 168.81,254.74 168.81,254.74 168.81,254.74 168.81,254.74 168.81,254.74 169.26,254.74 169.26,254.74 169.26,254.74 169.26,254.74 169.26,254.74 169.26,254.74 169.26,254.74 169.72,254.74 169.72,254.74 169.72,254.74 169.72,254.74 169.72,254.74 169.72,254.74 169.72,254.74 169.72,254.74 170.18,254.74 170.18,254.74 170.18,254.74 170.18,254.74 170.18,254.74 170.18,254.74 170.18,254.74 170.18,254.74 170.18,254.74 170.64,254.74 170.64,254.74 170.64,254.74 170.64,254.74 170.64,254.74 170.64,254.74 170.64,254.74 170.64,254.74 170.64,254.74 170.64,254.74 170.64,254.74 170.64,254.74 170.64,254.74 170.64,254.74 170.64,254.74 170.64,254.74 170.64,254.74 170.64,254.74 170.64,254.74 170.64,254.74 170.64,254.74 170.64,254.74 170.64,254.74 170.64,254.74 170.64,254.74 170.64,254.74 170.64,254.74 170.64,254.74 171.10,254.74 171.10,254.74 171.10,254.74 171.10,254.74 171.10,254.74 171.10,254.74 171.10,254.74 171.10,254.74 171.10,254.74 171.55,254.74 171.55,254.74 171.55,254.74 171.55,254.74 171.55,254.74 171.55,254.74 171.55,254.74 171.55,254.74 172.01,254.74 172.01,254.74 172.01,254.74 172.01,254.74 172.01,254.74 172.01,254.74 172.01,254.74 172.47,254.74 172.47,254.74 172.47,254.74 172.47,254.74 172.47,254.74 172.47,254.74 172.93,254.74 172.93,254.74 172.93,254.74 172.93,254.74 172.93,254.74 173.39,254.74 173.39,254.74 173.39,254.74 173.39,254.74 173.85,254.74 173.85,254.74 173.85,254.74 174.30,254.74 174.30,254.74 174.76,254.74 175.22,254.74 175.22,254.74 175.22,254.74 175.22,254.74 175.22,254.74 175.22,254.74 175.22,254.74 175.22,254.74 175.22,254.74 175.68,254.74 176.14,254.74 176.59,254.74 177.05,254.74 177.51,254.74 177.97,254.74 178.43,254.74 178.88,254.74 179.34,254.74 179.80,254.74 179.80,254.74 179.80,254.74 179.80,254.74 179.80,254.74 179.80,254.74 179.80,254.74 179.80,254.74 180.26,254.74 180.72,254.74 181.18,254.74 181.63,254.74 182.09,254.74 182.55,254.74 183.01,254.74 183.47,254.74 183.92,254.74 184.38,254.74 184.38,254.74 184.38,254.74 184.38,254.74 184.38,254.74 184.38,254.74 184.38,254.74 184.84,254.74 185.30,254.74 185.76,254.74 186.22,254.74 186.67,254.74 187.13,254.74 187.59,254.74 188.05,254.74 188.51,254.74 188.96,254.74 188.96,254.74 188.96,254.74 188.96,254.74 188.96,254.74 188.96,254.74 189.42,254.74 189.88,254.74 190.34,254.74 190.80,254.74 191.26,254.74 191.71,254.74 192.17,254.74 192.63,254.74 193.09,254.74 193.55,254.74 193.55,254.74 193.55,254.74 193.55,254.74 193.55,254.74 193.55,254.74 194.00,254.74 194.46,254.74 194.92,254.74 195.38,254.74 195.84,254.74 196.30,254.74 196.75,254.74 197.21,254.74 197.67,254.74 198.13,254.74 198.13,254.74 198.13,254.74 198.13,254.74 198.59,254.74 199.04,254.74 199.50,254.74 199.96,254.74 200.42,254.74 200.88,254.74 201.33,254.74 201.79,254.74 202.25,254.74 202.71,254.74 202.71,254.74 202.71,254.74 203.17,254.74 203.63,254.74 204.08,254.74 204.54,254.74 205.00,254.74 205.46,254.74 205.92,254.74 206.37,254.74 206.83,254.74 207.29,254.74 207.29,254.74 207.75,254.74 208.21,254.74 208.67,254.74 209.12,254.74 209.58,254.74 210.04,254.74 210.50,254.74 210.96,254.74 211.41,254.74 211.87,254.74 212.33,254.74 212.79,254.74 213.25,254.74 213.71,254.74 214.16,254.74 214.62,254.74 215.08,254.74 215.54,254.74 216.00,254.74 216.45,254.74 216.45,254.74 216.45,254.74 216.45,254.74 216.45,254.74 216.45,254.74 216.45,254.74 216.45,254.74 221.04,254.74 225.62,254.74 230.20,254.74 234.78,254.74 239.36,254.74 239.36,254.74 243.94,254.74 248.53,254.74 253.11,254.74 257.69,254.74 258.15,254.74 258.61,254.74 259.06,254.74 259.52,254.74 259.98,254.74 260.44,254.74 260.90,254.74 261.35,254.74 261.81,254.74 262.27,254.74 262.27,254.74 262.27,254.74 262.27,254.74 262.27,254.74 262.27,254.74 262.27,254.74 266.85,254.74 271.43,254.74 276.02,251.98 280.60,249.22 285.18,246.46 285.18,246.46 289.76,246.46 294.34,243.70 298.92,243.70 303.51,240.94 303.96,240.94 304.42,240.94 304.88,240.94 305.34,240.94 305.80,240.94 306.25,240.94 306.71,240.94 307.17,240.94 307.63,240.94 308.09,238.18 308.09,238.18 308.09,238.18 308.09,238.18 308.09,238.18 308.09,238.18 312.67,238.18 317.25,238.18 321.83,235.42 326.41,235.42 330.99,232.66 330.99,232.66 335.58,232.66 340.16,229.90 344.74,229.90 349.32,229.90 349.78,229.90 350.24,229.90 350.70,229.90 351.15,229.90 351.61,229.90 352.07,229.90 352.53,229.90 352.99,227.14 353.44,227.14 353.90,227.14 353.90,227.14 353.90,227.14 353.90,227.14 353.90,227.14 358.48,227.14 363.07,227.14 367.65,224.38 372.23,224.38 376.81,224.38 376.81,224.38 381.39,224.38 385.97,221.62 390.56,221.62 395.14,221.62 395.60,221.62 396.05,221.62 396.51,221.62 396.97,221.62 397.43,221.62 397.89,221.62 398.34,221.62 398.80,221.62 399.26,221.62 399.72,221.62 399.72,221.62 399.72,221.62 399.72,221.62 404.30,218.86 408.88,218.86 413.46,218.86 418.05,218.86 422.63,216.10 422.63,216.10 427.21,216.10 431.79,216.10 436.37,216.10 440.95,216.10 441.41,216.10 441.87,216.10 442.33,216.10 442.79,216.10 443.24,216.10 443.70,216.10 444.16,213.34 444.62,213.34 445.08,213.34 445.54,213.34 445.54,213.34 445.54,213.34 450.12,213.34 454.70,213.34 459.28,213.34 463.86,213.34 468.44,213.34 468.44,213.34 473.03,210.58 477.61,210.58 482.19,210.58 486.77,210.58 487.23,210.58 487.69,210.58 488.14,210.58 488.60,210.58 489.06,210.58 489.52,210.58 489.98,210.58 490.44,210.58 490.89,210.58 491.35,210.58 491.35,210.58 "
     style="stroke:#00003d;stroke-width:2.07;stroke-linecap:butt;stroke-dasharray:none;stroke-opacity:1"
     id="polyline38" />
  <rect
     x="58.389999"
     y="5.48"
     width="453.57999"
     height="261.13"
     style="stroke:#333333;stroke-width:1.07"
     id="rect40" />
  <text
     x="53.459999"
     y="261.89999"
     text-anchor="end"
     style="font-size:20px;font-family:Arial;fill:#4d4d4d"
     textLength="11.12"
     lengthAdjust="spacingAndGlyphs"
     id="text44">0</text>
  <text
     x="53.459999"
     y="192.89"
     text-anchor="end"
     style="font-size:20px;font-family:Arial;fill:#4d4d4d"
     textLength="22.25"
     lengthAdjust="spacingAndGlyphs"
     id="text46">25</text>
  <text
     x="53.459999"
     y="123.88"
     text-anchor="end"
     style="font-size:20px;font-family:Arial;fill:#4d4d4d"
     textLength="22.25"
     lengthAdjust="spacingAndGlyphs"
     id="text48">50</text>
  <text
     x="53.459999"
     y="54.869999"
     text-anchor="end"
     style="font-size:20px;font-family:Arial;fill:#4d4d4d"
     textLength="22.25"
     lengthAdjust="spacingAndGlyphs"
     id="text50">75</text>
  <polyline
     points="55.65,254.74 58.39,254.74 "
     style="stroke:#333333;stroke-width:1.07;stroke-linecap:butt"
     id="polyline52" />
  <polyline
     points="55.65,185.73 58.39,185.73 "
     style="stroke:#333333;stroke-width:1.07;stroke-linecap:butt"
     id="polyline54" />
  <polyline
     points="55.65,116.72 58.39,116.72 "
     style="stroke:#333333;stroke-width:1.07;stroke-linecap:butt"
     id="polyline56" />
  <polyline
     points="55.65,47.71 58.39,47.71 "
     style="stroke:#333333;stroke-width:1.07;stroke-linecap:butt"
     id="polyline58" />
  <polyline
     points="124.82,269.35 124.82,266.61 "
     style="stroke:#333333;stroke-width:1.07;stroke-linecap:butt"
     id="polyline60" />
  <polyline
     points="216.45,269.35 216.45,266.61 "
     style="stroke:#333333;stroke-width:1.07;stroke-linecap:butt"
     id="polyline62" />
  <polyline
     points="308.09,269.35 308.09,266.61 "
     style="stroke:#333333;stroke-width:1.07;stroke-linecap:butt"
     id="polyline64" />
  <polyline
     points="399.72,269.35 399.72,266.61 "
     style="stroke:#333333;stroke-width:1.07;stroke-linecap:butt"
     id="polyline66" />
  <polyline
     points="491.35,269.35 491.35,266.61 "
     style="stroke:#333333;stroke-width:1.07;stroke-linecap:butt"
     id="polyline68" />
  <text
     x="124.82"
     y="285.85999"
     text-anchor="middle"
     style="font-size:20px;font-family:Arial;fill:#4d4d4d"
     textLength="27.809999"
     lengthAdjust="spacingAndGlyphs"
     id="text70">0.0</text>
  <text
     x="216.45"
     y="285.85999"
     text-anchor="middle"
     style="font-size:20px;font-family:Arial;fill:#4d4d4d"
     textLength="27.809999"
     lengthAdjust="spacingAndGlyphs"
     id="text72">0.2</text>
  <text
     x="308.09"
     y="285.85999"
     text-anchor="middle"
     style="font-size:20px;font-family:Arial;fill:#4d4d4d"
     textLength="27.809999"
     lengthAdjust="spacingAndGlyphs"
     id="text74">0.4</text>
  <text
     x="399.72"
     y="285.85999"
     text-anchor="middle"
     style="font-size:20px;font-family:Arial;fill:#4d4d4d"
     textLength="27.809999"
     lengthAdjust="spacingAndGlyphs"
     id="text76">0.6</text>
  <text
     x="491.35001"
     y="285.85999"
     text-anchor="middle"
     style="font-size:20px;font-family:Arial;fill:#4d4d4d"
     textLength="27.809999"
     lengthAdjust="spacingAndGlyphs"
     id="text78">0.8</text>
  <text
     x="209.98"
     y="310.32999"
     style="font-size:20px;font-family:Arial"
     textLength="112.3"
     lengthAdjust="spacingAndGlyphs"
     id="text80">Net benefits </text>
  <text
     x="322.28"
     y="310.32999"
     style="font-size:25px;font-family:Arial"
     textLength="7.5500002"
     lengthAdjust="spacingAndGlyphs"
     id="text82">(</text>
  <text
     x="329.82999"
     y="310.32999"
     style="font-size:20px;font-family:Arial"
     textLength="12.9"
     lengthAdjust="spacingAndGlyphs"
     id="text84"></text>
  <text
     x="342.72"
     y="313.95999"
     style="font-size:14px;font-family:Arial"
     textLength="10.11"
     lengthAdjust="spacingAndGlyphs"
     id="text86">R</text>
  <text
     x="352.82999"
     y="310.32999"
     style="font-size:25px;font-family:Arial"
     textLength="7.5500002"
     lengthAdjust="spacingAndGlyphs"
     id="text88">)</text>
  <text
     transform="rotate(-90,143.005,122.955)"
     style="font-size:20px;font-family:Arial"
     textLength="214.52"
     lengthAdjust="spacingAndGlyphs"
     id="text90">Development time limit (</text>
  <text
     transform="rotate(-90,35.75,15.7)"
     style="font-size:20px;font-family:Arial"
     textLength="12.22"
     lengthAdjust="spacingAndGlyphs"
     id="text92">T</text>
  <text
     transform="rotate(-90,31.455,7.775)"
     style="font-size:14px;font-family:Arial"
     textLength="11.66"
     lengthAdjust="spacingAndGlyphs"
     id="text94">m</text>
  <text
     transform="rotate(-90,25.625,1.945)"
     style="font-size:14px;font-family:Arial"
     textLength="7.7800002"
     lengthAdjust="spacingAndGlyphs"
     id="text96">a</text>
  <text
     transform="rotate(-90,21.735,-1.945)"
     style="font-size:14px;font-family:Arial"
     textLength="7"
     lengthAdjust="spacingAndGlyphs"
     id="text98">x</text>
  <text
     transform="rotate(-90,16.42,-3.63)"
     style="font-size:20px;font-family:Arial"
     textLength="6.6599998"
     lengthAdjust="spacingAndGlyphs"
     id="text100">)</text>
  <rect
     x="522.92999"
     y="36.630001"
     width="84.870003"
     height="115.84"
     style="fill:#ffffff;stroke:none;stroke-width:1.07"
     id="rect102" />
  <text
     x="528.40997"
     y="61.48"
     style="font-size:20px;font-family:Arial"
     textLength="14.44"
     lengthAdjust="spacingAndGlyphs"
     id="text104">C</text>
  <text
     x="542.84998"
     y="65.110001"
     style="font-size:14px;font-family:Arial"
     textLength="7.7800002"
     lengthAdjust="spacingAndGlyphs"
     id="text106">d</text>
  <text
     x="550.63"
     y="65.110001"
     style="font-size:14px;font-family:Arial"
     textLength="7.7800002"
     lengthAdjust="spacingAndGlyphs"
     id="text108">e</text>
  <text
     x="558.41998"
     y="65.110001"
     style="font-size:14px;font-family:Arial"
     textLength="7"
     lengthAdjust="spacingAndGlyphs"
     id="text110">v</text>
  <polyline
     points="568.01,64.42 573.20,44.21 "
     style="stroke-width:0.75"
     id="polyline112" />
  <text
     x="575.78998"
     y="61.48"
     style="font-size:20px;font-family:Arial"
     textLength="13.34"
     lengthAdjust="spacingAndGlyphs"
     id="text114">B</text>
  <text
     x="589.13"
     y="65.110001"
     style="font-size:14px;font-family:Arial"
     textLength="7.7800002"
     lengthAdjust="spacingAndGlyphs"
     id="text116">h</text>
  <rect
     x="528.40997"
     y="72.860001"
     width="17.280001"
     height="18.530001"
     style="fill:#ffffff;stroke:none;stroke-width:1.07"
     id="rect118" />
  <line
     x1="530.14001"
     y1="82.129997"
     x2="543.96002"
     y2="82.129997"
     style="stroke:#1e90ff;stroke-width:1.07;stroke-linecap:butt"
     id="line120" />
  <line
     x1="530.14001"
     y1="82.129997"
     x2="543.96002"
     y2="82.129997"
     style="stroke:#40a1ff;stroke-width:2.07;stroke-linecap:butt;stroke-dasharray:none;stroke-opacity:1"
     id="line122" />
  <rect
     x="528.40997"
     y="91.389999"
     width="17.280001"
     height="18.530001"
     style="fill:#ffffff;stroke:none;stroke-width:1.07"
     id="rect124" />
  <line
     x1="530.14001"
     y1="100.66"
     x2="543.96002"
     y2="100.66"
     style="stroke:#1874cd;stroke-width:1.07;stroke-linecap:butt"
     id="line126" />
  <line
     x1="530.14001"
     y1="100.66"
     x2="543.96002"
     y2="100.66"
     style="stroke:#1b80e3;stroke-width:2.07;stroke-linecap:butt;stroke-dasharray:none;stroke-opacity:1"
     id="line128" />
  <rect
     x="528.40997"
     y="109.93"
     width="17.280001"
     height="18.530001"
     style="fill:#ffffff;stroke:none;stroke-width:1.07"
     id="rect130" />
  <line
     x1="530.14001"
     y1="119.19"
     x2="543.96002"
     y2="119.19"
     style="stroke:#104e8b;stroke-width:1.07;stroke-linecap:butt"
     id="line132" />
  <line
     x1="530.14001"
     y1="119.19"
     x2="543.96002"
     y2="119.19"
     style="stroke:#104e8b;stroke-width:2.07;stroke-linecap:butt;stroke-dasharray:none"
     id="line134" />
  <rect
     x="528.40997"
     y="128.46001"
     width="17.280001"
     height="18.530001"
     style="fill:#ffffff;stroke:none;stroke-width:1.07"
     id="rect136" />
  <line
     x1="530.14001"
     y1="137.72"
     x2="543.96002"
     y2="137.72"
     style="stroke:#00008b;stroke-width:1.07;stroke-linecap:butt"
     id="line138" />
  <line
     x1="530.14001"
     y1="137.72"
     x2="543.96002"
     y2="137.72"
     style="stroke:#00003d;stroke-width:2.07;stroke-linecap:butt;stroke-dasharray:none;stroke-opacity:1"
     id="line140" />
  <text
     x="551.16998"
     y="89.290001"
     style="font-size:20px;font-family:Arial"
     textLength="51.16"
     lengthAdjust="spacingAndGlyphs"
     id="text142">1e-04</text>
  <text
     x="551.16998"
     y="107.82"
     style="font-size:20px;font-family:Arial"
     textLength="50.049999"
     lengthAdjust="spacingAndGlyphs"
     id="text144">0.001</text>
  <text
     x="551.16998"
     y="126.35"
     style="font-size:20px;font-family:Arial"
     textLength="38.93"
     lengthAdjust="spacingAndGlyphs"
     id="text146">0.01</text>
  <text
     x="551.16998"
     y="144.88"
     style="font-size:20px;font-family:Arial"
     textLength="27.809999"
     lengthAdjust="spacingAndGlyphs"
     id="text148">0.1</text>
  <rect
     x="522.92999"
     y="163.42999"
     width="191.59"
     height="72.040001"
     style="fill:#ffffff;stroke:none;stroke-width:1.07"
     id="rect150" />
  <rect
     x="528.40997"
     y="192.92"
     width="17.280001"
     height="18.530001"
     style="fill:#ffffff;stroke:none;stroke-width:1.07"
     id="rect152" />
  <line
     x1="530.14001"
     y1="202.19"
     x2="543.96002"
     y2="202.19"
     style="stroke-width:2.07;stroke-linecap:butt;stroke-dasharray:4.14,2.07;stroke-dashoffset:0"
     id="line154" />
  <rect
     x="528.40997"
     y="211.45"
     width="17.280001"
     height="18.530001"
     style="fill:#ffffff;stroke:none;stroke-width:1.07"
     id="rect156" />
  <line
     x1="530.14001"
     y1="220.72"
     x2="543.96002"
     y2="220.72"
     style="stroke-width:2.07;stroke-linecap:butt;stroke-dasharray:none"
     id="line158" />
  <text
     x="551.16998"
     y="209.35001"
     style="font-size:20px;font-family:Arial"
     textLength="157.87"
     lengthAdjust="spacingAndGlyphs"
     id="text160">Analytical approx.</text>
  <text
     x="551.16998"
     y="227.88"
     style="font-size:20px;font-family:Arial"
     textLength="50.029999"
     lengthAdjust="spacingAndGlyphs"
     id="text162">Exact</text>
</svg>
